<svg width="18" height="18" viewBox="0 0 18 18" fill="none" xmlns="http://www.w3.org/2000/svg">
<path fill-rule="evenodd" clip-rule="evenodd" d="M10.621 5.31805C10.621 4.32172 9.72971 3.53878 8.69158 3.72584L8.68824 3.72644L8.68824 3.72643C8.38136 3.78047 8.05168 3.98757 7.78716 4.33061C7.52287 4.67335 7.37871 5.08268 7.37871 5.43843V6.18898C7.37871 6.54257 7.52312 6.94976 7.78873 7.29273C8.05433 7.63569 8.38584 7.84504 8.69302 7.90183C9.73054 8.0879 10.621 7.30523 10.621 6.30936V5.31805ZM8.38921 2.03843C10.4942 1.66013 12.3352 3.27019 12.3352 5.31805V6.30936C12.3352 8.35774 10.4933 9.9681 8.38759 9.58869L8.38485 9.58819C7.57363 9.4393 6.8967 8.94067 6.43336 8.34238C5.96965 7.74361 5.66443 6.9754 5.66443 6.18898V5.43843C5.66443 4.65417 5.96636 3.88456 6.42961 3.28379C6.89232 2.68374 7.57102 2.18304 8.38921 2.03843Z" fill="#8D8D8D"/>
<path fill-rule="evenodd" clip-rule="evenodd" d="M9 1.71429C4.97621 1.71429 1.71429 4.97621 1.71429 9C1.71429 13.0238 4.97621 16.2857 9 16.2857C13.0238 16.2857 16.2857 13.0238 16.2857 9C16.2857 4.97621 13.0238 1.71429 9 1.71429ZM0 9C0 4.02944 4.02944 0 9 0C13.9706 0 18 4.02944 18 9C18 13.9706 13.9706 18 9 18C4.02944 18 0 13.9706 0 9Z" fill="#8D8D8D"/>
<path fill-rule="evenodd" clip-rule="evenodd" d="M8.99985 12.3353C6.82801 12.3353 4.99613 13.5832 4.23181 15.3029C4.03955 15.7355 3.53301 15.9303 3.10042 15.738C2.66784 15.5458 2.47302 15.0392 2.66528 14.6066C3.71362 12.2479 6.17268 10.621 8.99985 10.621C11.827 10.621 14.2861 12.2479 15.3344 14.6066C15.5267 15.0392 15.3319 15.5458 14.8993 15.738C14.4667 15.9303 13.9601 15.7355 13.7679 15.3029C13.0036 13.5832 11.1717 12.3353 8.99985 12.3353Z" fill="#8D8D8D"/>
</svg>
