<svg width="18" height="18" viewBox="0 0 18 18" fill="none" xmlns="http://www.w3.org/2000/svg">
<path d="M13.5268 15C12.713 15 12.0536 15.6714 12.0536 16.5C12.0536 17.3286 12.713 18 13.5268 18C14.3406 18 15 17.3286 15 16.5C15 15.6714 14.3406 15 13.5268 15ZM8.22321 15C7.40941 15 6.75 15.6714 6.75 16.5C6.75 17.3286 7.40941 18 8.22321 18C9.03702 18 9.69643 17.3286 9.69643 16.5C9.69643 15.6714 9.03702 15 8.22321 15Z" fill="#8D8D8D"/>
<path fill-rule="evenodd" clip-rule="evenodd" d="M13.5268 15.75C13.1399 15.75 12.8036 16.0728 12.8036 16.5C12.8036 16.9272 13.1399 17.25 13.5268 17.25C13.9137 17.25 14.25 16.9272 14.25 16.5C14.25 16.0728 13.9137 15.75 13.5268 15.75ZM8.22321 15.75C7.83631 15.75 7.5 16.0728 7.5 16.5C7.5 16.9272 7.83631 17.25 8.22321 17.25C8.61012 17.25 8.94643 16.9272 8.94643 16.5C8.94643 16.0728 8.61012 15.75 8.22321 15.75ZM12.0536 16.5C12.0536 15.6714 12.713 15 13.5268 15C14.3406 15 15 15.6714 15 16.5C15 17.3286 14.3406 18 13.5268 18C12.713 18 12.0536 17.3286 12.0536 16.5ZM6.75 16.5C6.75 15.6714 7.40941 15 8.22321 15C9.03702 15 9.69643 15.6714 9.69643 16.5C9.69643 17.3286 9.03702 18 8.22321 18C7.40941 18 6.75 17.3286 6.75 16.5Z" fill="#8D8D8D"/>
<path fill-rule="evenodd" clip-rule="evenodd" d="M0 0.75C0 0.335786 0.335786 0 0.75 0H4.26064C4.60094 0 4.89859 0.229112 4.98567 0.55808L5.95308 4.21276H17.25C17.4947 4.21276 17.7239 4.3321 17.8643 4.53249C18.0047 4.73288 18.0385 4.98914 17.9548 5.21907L15.1463 12.9425C15.0386 13.2389 14.7569 13.4362 14.4415 13.4362H7.42021C7.07991 13.4362 6.78226 13.2071 6.69518 12.8781L3.68334 1.5H0.75C0.335786 1.5 0 1.16421 0 0.75ZM6.35014 5.71276L7.99751 11.9362H13.9162L16.1792 5.71276H6.35014Z" fill="#8D8D8D"/>
</svg>
