<svg width="18" height="19" viewBox="0 0 18 19" fill="none" xmlns="http://www.w3.org/2000/svg">
<g clip-path="url(#clip0_3905_260)">
<rect width="18" height="18" transform="translate(0 0.5)" fill="white"/>
<path d="M8.95073 17.7198C8.04928 16.3722 7.28633 15.2514 6.64012 14.3022C5.49362 12.618 4.71457 11.4736 4.18132 10.5592C3.77363 9.86011 3.53647 9.33832 3.39648 8.85084C3.25802 8.36867 3.20456 7.88504 3.20456 7.25C3.20456 3.91436 5.82085 1.25 9.00001 1.25C12.1792 1.25 14.7955 3.91436 14.7955 7.25C14.7955 7.88504 14.742 8.36867 14.6035 8.85084C14.4636 9.33832 14.2264 9.86011 13.8187 10.5592C13.2855 11.4736 12.5064 12.618 11.3599 14.3022C10.7138 15.2513 9.95096 16.3719 9.04966 17.7193C9.03871 17.7355 9.02943 17.7415 9.02404 17.7443C9.01732 17.7478 9.00912 17.75 9.00001 17.75C8.9909 17.75 8.98271 17.7478 8.97598 17.7443C8.97054 17.7415 8.96113 17.7353 8.95005 17.7188L8.32733 18.1368L8.95073 17.7198ZM9.00001 10.8125C10.9421 10.8125 12.4773 9.1956 12.4773 7.25C12.4773 5.3044 10.9421 3.6875 9.00001 3.6875C7.05798 3.6875 5.52274 5.3044 5.52274 7.25C5.52274 9.1956 7.05798 10.8125 9.00001 10.8125Z" stroke="#8D8D8D" stroke-width="1.5"/>
</g>
<defs>
<clipPath id="clip0_3905_260">
<rect width="18" height="18" fill="white" transform="translate(0 0.5)"/>
</clipPath>
</defs>
</svg>
