<svg width="19" height="18" viewBox="0 0 19 18" fill="none" xmlns="http://www.w3.org/2000/svg">
<path d="M12.9873 0.000335199C12.2626 0.00841138 11.5192 0.161729 10.7919 0.476213L10.7589 0.49139L10.7259 0.509817C10.2649 0.76416 9.84468 1.08233 9.47114 1.45939C7.46079 -0.424241 4.26023 -0.560951 2.07059 1.57755L2.04857 1.59922L2.02856 1.62199C0.107714 3.79551 0.152699 7.14283 1.3041 9.78769L1.3141 9.8083L1.32411 9.82998C2.68017 12.5503 5.21235 14.8618 7.51992 16.7621L7.52592 16.7675L7.53092 16.7719C7.67937 16.8898 7.93464 17.1335 8.22935 17.3735C8.52404 17.6134 8.85693 17.8764 9.34403 17.9773L9.45309 18L9.56316 17.9902C10.0744 17.9425 10.2749 17.738 10.6108 17.509C10.9467 17.2799 11.3185 16.9892 11.7005 16.671C12.4535 16.0439 13.2327 15.321 13.7458 14.8055C13.7524 14.7988 13.7632 14.7893 13.7698 14.7827C13.7708 14.7817 13.7717 14.7804 13.7728 14.7795C14.8535 13.7804 15.9241 12.6286 16.8317 11.2739C16.8319 11.2735 16.8324 11.2732 16.8326 11.2728C16.8343 11.2703 16.8359 11.2677 16.8376 11.2652C18.277 9.16583 18.9752 6.33669 18.1424 3.54935L18.1274 3.49948L18.1074 3.45286C17.1725 1.26313 15.1615 -0.0238608 12.9873 0.000335199ZM13.0133 1.71522C14.5798 1.67618 15.9529 2.58488 16.6345 4.13901C17.2644 6.31482 16.7199 8.53168 15.5469 10.2386L15.5439 10.243L15.5409 10.2473C14.7237 11.469 13.734 12.5384 12.7081 13.4841L12.6951 13.4971L12.6821 13.5101C12.2202 13.976 11.4382 14.7016 10.7239 15.2966C10.3667 15.594 10.0243 15.8599 9.75831 16.0413C9.65829 16.1095 9.56319 16.156 9.48513 16.1919C9.4031 16.1434 9.29898 16.075 9.19097 15.9871C8.97347 15.81 8.74187 15.5839 8.48952 15.3822C8.48559 15.3789 8.48145 15.3757 8.47752 15.3724C6.23811 13.5272 3.87927 11.2866 2.74499 9.02782C1.82412 6.8966 1.86431 4.34571 3.16524 2.84689C4.93413 1.14306 7.56209 1.51347 8.87274 3.26206L9.51114 4.113L10.1285 3.24472C10.4838 2.74547 10.9077 2.36381 11.4223 2.07401C11.9618 1.84572 12.4977 1.72805 13.0133 1.71522Z" fill="#8D8D8D"/>
</svg>
