<svg width="18" height="18" viewBox="0 0 18 18" fill="none" xmlns="http://www.w3.org/2000/svg">
<rect width="18" height="18" fill="white"/>
<path d="M4 4.49996V2.69995C4.00001 2.17874 4.16765 1.66867 4.48266 1.23132C4.79768 0.793962 5.24662 0.448017 5.77529 0.235238C6.30395 0.0224602 6.88975 -0.0480548 7.46196 0.032205C8.03418 0.112465 8.56835 0.340069 9 0.687543C9.43165 0.340069 9.96582 0.112465 10.538 0.032205C11.1103 -0.0480548 11.696 0.0224602 12.2247 0.235238C12.7534 0.448017 13.2023 0.793962 13.5173 1.23132C13.8324 1.66867 14 2.17874 14 2.69995V4.49996H15.5C15.8978 4.49996 16.2794 4.64219 16.5607 4.89536C16.842 5.14854 17 5.49192 17 5.84996V14.8545C17 15.6887 16.6318 16.4888 15.9763 17.0787C15.3209 17.6686 14.4319 18 13.505 18H5C3.93913 18 2.92172 17.6207 2.17157 16.9456C1.42143 16.2704 1 15.3548 1 14.4V5.84996C1 5.49192 1.15804 5.14854 1.43934 4.89536C1.72064 4.64219 2.10218 4.49996 2.5 4.49996H4ZM10.635 16.65C10.2271 16.1233 10.0089 15.4965 10.01 14.8545V5.84996H2.5V14.4C2.5 14.6955 2.56466 14.988 2.6903 15.261C2.81594 15.534 3.00009 15.7821 3.23223 15.991C3.46438 16.1999 3.73998 16.3657 4.04329 16.4787C4.34661 16.5918 4.6717 16.65 5 16.65H10.635ZM8.5 4.49996V2.69995C8.5 2.34191 8.34196 1.99853 8.06066 1.74535C7.77936 1.49218 7.39782 1.34994 7 1.34994C6.60218 1.34994 6.22064 1.49218 5.93934 1.74535C5.65804 1.99853 5.5 2.34191 5.5 2.69995V4.49996H8.5ZM10 4.49996H12.5V2.69995C12.5 2.42206 12.4048 2.15093 12.2272 1.92357C12.0497 1.69622 11.7985 1.52371 11.508 1.42959C11.2175 1.33548 10.9018 1.32435 10.604 1.39772C10.3062 1.47109 10.0408 1.62539 9.844 1.83955C9.945 2.10955 10 2.39935 10 2.69995V4.49996ZM11.51 14.8545C11.51 15.3307 11.7202 15.7874 12.0943 16.1241C12.4685 16.4608 12.9759 16.65 13.505 16.65C14.0341 16.65 14.5415 16.4608 14.9157 16.1241C15.2898 15.7874 15.5 15.3307 15.5 14.8545V5.84996H11.51V14.8545Z" fill="#8D8D8D"/>
</svg>
